<?xml version="1.0" encoding="UTF-8"?>
<svg version="1.1" xmlns="http://www.w3.org/2000/svg" width="130" height="151">
<path d="M0 0 C1.07507812 -0.00128906 2.15015625 -0.00257812 3.2578125 -0.00390625 C4.38960937 -0.00003906 5.52140625 0.00382812 6.6875 0.0078125 C7.81929687 0.00394531 8.95109375 0.00007813 10.1171875 -0.00390625 C11.19226563 -0.00261719 12.26734375 -0.00132813 13.375 0 C14.36886719 0.00112793 15.36273438 0.00225586 16.38671875 0.00341797 C18.6875 0.1328125 18.6875 0.1328125 19.6875 1.1328125 C21.4509375 1.473125 21.4509375 1.473125 23.25 1.8203125 C37.87284471 4.99209381 53.66425306 11.63555865 63.6875 23.1328125 C64.54296875 25.1875 64.54296875 25.1875 64.6875 27.1328125 C63.0652546 28.84274684 61.39336575 30.50628934 59.6875 32.1328125 C59.42839844 32.88046875 59.16929688 33.628125 58.90234375 34.3984375 C57.20624353 38.21602642 54.55406864 40.58909326 51.5625 43.4453125 C50.99917969 43.99509766 50.43585938 44.54488281 49.85546875 45.11132812 C48.47287942 46.45876688 47.08109084 47.79675523 45.6875 49.1328125 C46.23277344 49.31457031 46.77804688 49.49632812 47.33984375 49.68359375 C52.7890625 51.5 58.23828125 53.31640625 63.6875 55.1328125 C64.79660894 59.5491616 64.79444132 63.83557502 64.70703125 68.35546875 C64.69290695 69.13796494 64.67878265 69.92046112 64.66423035 70.72666931 C64.63123026 72.37489578 64.59489403 74.02305845 64.55541992 75.67114258 C64.50010999 78.19030286 64.47161416 80.70892609 64.44335938 83.22851562 C64.40791083 84.83337088 64.37085592 86.43819162 64.33203125 88.04296875 C64.32766556 88.79409439 64.32329987 89.54522003 64.31880188 90.31910706 C64.20353474 93.85707716 64.00291241 95.75187098 61.7109375 98.52001953 C61.04320313 99.05224121 60.37546875 99.58446289 59.6875 100.1328125 C58.64105206 102.00057437 58.64105206 102.00057437 57.875 103.9453125 C53.41696278 113.33341441 44.05685087 119.27671912 34.6875 123.1328125 C31.77716423 124.01213855 28.86208045 124.79271635 25.91015625 125.51953125 C23.73201923 125.92377442 23.73201923 125.92377442 22.6875 127.1328125 C18.32975996 127.42662616 13.96573745 127.44723482 9.59936523 127.48291016 C8.13598532 127.49929307 6.6726793 127.52634255 5.2097168 127.56494141 C-4.2707101 127.81354455 -13.06516139 127.45971951 -21.3125 122.1328125 C-24.1032267 119.02105002 -25.77529266 116.53315636 -26.875 112.5078125 C-27.77037648 109.24886457 -28.52445157 107.16164408 -31.3125 105.1328125 C-33.58821133 104.81536242 -33.58821133 104.81536242 -36.0625 104.8828125 C-41.19232804 104.50144044 -43.50960802 103.00087527 -46.84765625 99.16015625 C-52.47239232 91.37552152 -54.61997773 83.19295582 -54.6484375 73.70703125 C-54.6550943 72.91939896 -54.6617511 72.13176666 -54.66860962 71.32026672 C-54.67868154 69.66218379 -54.68342834 68.00406076 -54.68310547 66.34594727 C-54.68747034 63.83735822 -54.72382267 61.33054334 -54.76171875 58.82226562 C-54.82386425 50.22409808 -54.71942056 42.7892522 -50.3125 35.1328125 C-49.95752441 34.50898682 -49.60254883 33.88516113 -49.23681641 33.24243164 C-48.20630752 31.55735965 -47.07327675 29.93630363 -45.9375 28.3203125 C-45.20789062 27.26199219 -44.47828125 26.20367187 -43.7265625 25.11328125 C-41.18597099 21.97659626 -38.42781875 19.68507232 -35.3125 17.1328125 C-34.33990234 15.86824219 -34.33990234 15.86824219 -33.34765625 14.578125 C-30.87546145 11.60769516 -28.08297464 9.85592898 -24.75 8.0078125 C-24.13809814 7.66161865 -23.52619629 7.3154248 -22.89575195 6.95874023 C-18.20085826 4.39883131 -13.56074187 2.7597972 -8.32421875 1.60546875 C-1.49826239 0.00170036 -1.49826239 0.00170036 0 0 Z " fill="#010304" transform="translate(54.3125,19.8671875)"/>
<path d="M0 0 C0.79535156 0.25652344 1.59070313 0.51304688 2.41015625 0.77734375 C9.04052267 3.16509549 14.4405813 6.71422739 20 11 C20.70898438 11.54269531 21.41796875 12.08539063 22.1484375 12.64453125 C26.72453469 16.33342592 26.72453469 16.33342592 27.828125 19.00390625 C28 21 28 21 25.6875 23.75 C23 26 23 26 21 26 C21 26.66 21 27.32 21 28 C16.64705882 32 16.64705882 32 13 32 C12.7525 31.21625 12.505 30.4325 12.25 29.625 C10.77160884 26.52037855 10.01859515 26.38148319 7 25 C5.67881864 24.18049984 4.36632547 23.3468411 3.0625 22.5 C-6.30390356 16.61353565 -16.10623439 16.1823918 -27 17 C-37.5979382 19.68788288 -45.66421038 27.80601483 -51.75 36.5 C-55.89582595 44.79165189 -56.36554247 54.77136435 -54.39453125 63.76171875 C-53.6820958 65.89179224 -52.86942727 67.93012499 -52 70 C-51.32253242 71.99636723 -50.65386011 73.99577661 -50 76 C-51.5675518 77.7021698 -53.15459784 79.38640554 -54.75 81.0625 C-55.63171875 82.00222656 -56.5134375 82.94195312 -57.421875 83.91015625 C-60 86 -60 86 -62.16796875 86.08984375 C-67.95710218 82.64598825 -70.29076037 72.22486594 -72 66 C-75.06154627 53.41126429 -73.71220877 38.68701461 -67.01171875 27.51953125 C-57.48911247 12.75496896 -44.84384294 2.74819445 -27.6640625 -1.58984375 C-18.7408033 -2.96365932 -8.5924638 -2.84249748 0 0 Z " fill="#0FBAE8" transform="translate(91,26)"/>
<path d="M0 0 C1.64336322 6.65333859 1.14662249 13.56989828 1.03271484 20.37353516 C1.01095342 22.0374722 1.00340322 23.70165742 1.01025391 25.36572266 C1.06901375 40.98656249 1.06901375 40.98656249 -3.1484375 45.37109375 C-5.06542969 46.81542969 -5.06542969 46.81542969 -7 48 C-7.55333008 48.39348633 -8.10666016 48.78697266 -8.67675781 49.19238281 C-23.19998074 59.10617581 -39.81304984 62.53800858 -57.16503906 59.63818359 C-62.46152216 58.45666044 -67.38700189 57.23133 -71 53 C-70.46890625 52.55269531 -69.9378125 52.10539062 -69.390625 51.64453125 C-64.76841859 47.71855805 -64.76841859 47.71855805 -61 43 C-60.34 42.34 -59.68 41.68 -59 41 C-55.6875 41.1875 -55.6875 41.1875 -53.59765625 41.5859375 C-43.63281487 43.17431823 -35.02852932 42.44481444 -26 38 C-31.61 37.67 -37.22 37.34 -43 37 C-43 32.05 -43 27.1 -43 22 C-34.42 22 -25.84 22 -17 22 C-17 20.35 -17 18.7 -17 17 C-25.58 17 -34.16 17 -43 17 C-43 11.39 -43 5.78 -43 0 C-37.84056632 -0.16618592 -32.68127705 -0.32874989 -27.52148438 -0.48217773 C-25.7678382 -0.53540187 -24.01425407 -0.59071459 -22.26074219 -0.64819336 C-19.73386002 -0.73065404 -17.20684673 -0.80549166 -14.6796875 -0.87890625 C-13.51214432 -0.91945885 -13.51214432 -0.91945885 -12.3210144 -0.96083069 C-8.07321379 -1.07613977 -4.1887849 -0.86513847 0 0 Z " fill="#0DBEED" transform="translate(118,75)"/>
<path d="M0 0 C3.55742419 2.79545291 6.82672847 5.77758489 10 9 C7.37749593 14.45296001 4.00581783 18.53443381 -1 22 C-1.99 22 -2.98 22 -4 22 C-5.33333333 20 -6.66666667 18 -8 16 C-11.7155566 13.24225989 -14.40405698 12.58982697 -19 12.625 C-20.010625 12.61726563 -21.02125 12.60953125 -22.0625 12.6015625 C-25.44606527 13.06050353 -27.28485304 13.94959591 -30 16 C-34.10017575 21.5472966 -35.26285485 27.89831277 -34.6875 34.6875 C-34.790625 35.780625 -34.89375 36.87375 -35 38 C-37.75 40.1875 -37.75 40.1875 -41 42 C-41.70125 42.763125 -42.4025 43.52625 -43.125 44.3125 C-45 46 -45 46 -46.9765625 45.921875 C-49 45 -49 45 -50.265625 42.77734375 C-53.68033235 32.92618406 -54.06073762 25.08638574 -49.84765625 15.33203125 C-45.49735697 6.59528061 -39.86334174 0.30717479 -30.75 -3.5 C-19.9168969 -6.86929148 -9.75728048 -5.7987637 0 0 Z " fill="#10BDEB" transform="translate(92,51)"/>
<path d="M0 0 C0.95648438 0.03480469 1.91296875 0.06960937 2.8984375 0.10546875 C2.88272705 1.0277124 2.8670166 1.94995605 2.85083008 2.90014648 C2.79933557 6.36114256 2.7619114 9.82172445 2.73364258 13.28295898 C2.71866708 14.77358473 2.69827931 16.26416726 2.67211914 17.75463867 C2.53092512 26.01310457 2.53674831 33.40138239 5.8984375 41.10546875 C6.56510417 43.10546875 7.23177083 45.10546875 7.8984375 47.10546875 C6.3308857 48.80763855 4.74383966 50.49187429 3.1484375 52.16796875 C2.26671875 53.10769531 1.385 54.04742187 0.4765625 55.015625 C-2.1015625 57.10546875 -2.1015625 57.10546875 -4.3359375 57.15234375 C-6.64876038 55.78102399 -6.89653153 54.86725948 -7.6015625 52.29296875 C-8.35087946 49.63931036 -9.0960162 47.11851768 -10.17578125 44.578125 C-14.21452698 34.70091176 -13.48429448 24.58054852 -13.1015625 14.10546875 C-12.4415625 14.10546875 -11.7815625 14.10546875 -11.1015625 14.10546875 C-11.0190625 13.38359375 -10.9365625 12.66171875 -10.8515625 11.91796875 C-9.94160289 8.5056202 -8.40853784 6.75170517 -6.1015625 4.10546875 C-5.6478125 3.34234375 -5.1940625 2.57921875 -4.7265625 1.79296875 C-3.1015625 0.10546875 -3.1015625 0.10546875 0 0 Z " fill="#0FBDED" transform="translate(33.1015625,54.89453125)"/>
<path d="M0 0 C1.14843858 4.47388364 1.04131966 8.78766372 0.87890625 13.36328125 C0.84348976 14.55125557 0.84348976 14.55125557 0.80735779 15.76322937 C0.73110306 18.27985281 0.64691584 20.79613841 0.5625 23.3125 C0.50924101 25.0240723 0.4565009 26.73566083 0.40429688 28.44726562 C0.27553999 32.63172224 0.13967078 36.81589403 0 41 C-0.66 40.67 -1.32 40.34 -2 40 C-2 27.46 -2 14.92 -2 2 C-15.2 2 -28.4 2 -42 2 C-42 6.62 -42 11.24 -42 16 C-33.42 16 -24.84 16 -16 16 C-16 18.31 -16 20.62 -16 23 C-24.58 23 -33.16 23 -42 23 C-42 27.29 -42 31.58 -42 36 C-35.73 35.67 -29.46 35.34 -23 35 C-22.34 36.32 -21.68 37.64 -21 39 C-23.66666667 41.66666667 -26.33333333 44.33333333 -29 47 C-29.99 46.67 -30.98 46.34 -32 46 C-33.69867188 45.85222064 -35.40177489 45.75252934 -37.10546875 45.68359375 C-38.57983398 45.62075195 -38.57983398 45.62075195 -40.08398438 45.55664062 C-41.10814453 45.51732422 -42.13230469 45.47800781 -43.1875 45.4375 C-44.74114258 45.37272461 -44.74114258 45.37272461 -46.32617188 45.30664062 C-48.8839819 45.20055634 -51.44188845 45.09849854 -54 45 C-54 44.34 -54 43.68 -54 43 C-56.72574271 43.37330824 -57.80822085 43.79194601 -59.703125 45.84765625 C-60.21359375 46.57855469 -60.7240625 47.30945313 -61.25 48.0625 C-62.03117187 49.16271484 -62.03117187 49.16271484 -62.828125 50.28515625 C-63.21484375 50.85105469 -63.6015625 51.41695312 -64 52 C-61.64558284 51.85758352 -59.29152516 51.71115192 -56.9375 51.5625 C-55.62652344 51.48128906 -54.31554687 51.40007812 -52.96484375 51.31640625 C-50.36416246 51.1088642 -47.76850848 50.81830453 -45.1875 50.4375 C-42.09323127 50.01279645 -39.98806879 50.18507215 -37 51 C-37 51.66 -37 52.32 -37 53 C-36.01 53.495 -36.01 53.495 -35 54 C-35 54.66 -35 55.32 -35 56 C-29.46413339 56.33893061 -25.99709866 55.3134716 -21 53 C-18.0625 52.3125 -18.0625 52.3125 -16 52 C-16 51.34 -16 50.68 -16 50 C-12.56143592 45.83752769 -8.28175568 43.75453653 -3 43 C-9.01218528 51.45233871 -20.38853575 56.67017382 -30.25390625 59.375 C-42.61233647 61.43688617 -56.51944231 61.59069503 -68 56 C-69.8359375 54.36328125 -69.8359375 54.36328125 -71 53 C-70.46890625 52.55269531 -69.9378125 52.10539062 -69.390625 51.64453125 C-64.76841859 47.71855805 -64.76841859 47.71855805 -61 43 C-60.34 42.34 -59.68 41.68 -59 41 C-55.6875 41.1875 -55.6875 41.1875 -53.59765625 41.5859375 C-43.63281487 43.17431823 -35.02852932 42.44481444 -26 38 C-31.61 37.67 -37.22 37.34 -43 37 C-43 32.05 -43 27.1 -43 22 C-34.42 22 -25.84 22 -17 22 C-17 20.35 -17 18.7 -17 17 C-25.58 17 -34.16 17 -43 17 C-43 11.39 -43 5.78 -43 0 C-37.84056632 -0.16618592 -32.68127705 -0.32874989 -27.52148438 -0.48217773 C-25.7678382 -0.53540187 -24.01425407 -0.59071459 -22.26074219 -0.64819336 C-19.73386002 -0.73065404 -17.20684673 -0.80549166 -14.6796875 -0.87890625 C-13.51214432 -0.91945885 -13.51214432 -0.91945885 -12.3210144 -0.96083069 C-8.07321379 -1.07613977 -4.1887849 -0.86513847 0 0 Z " fill="#0EB7E4" transform="translate(118,75)"/>
<path d="M0 0 C0.66 0.33 1.32 0.66 2 1 C0.9375 3.8125 0.9375 3.8125 -1 7 C-3.31648799 8.03842565 -5.64903024 9.0421975 -8 10 C-9.04289755 12.06890419 -9.04289755 12.06890419 -9 14 C-8.01 14 -7.02 14 -6 14 C-6 14.66 -6 15.32 -6 16 C-5.01 16 -4.02 16 -3 16 C-3 16.99 -3 17.98 -3 19 C-3.99 19.66 -4.98 20.32 -6 21 C-6.72382467 23.05925139 -6.72382467 23.05925139 -7 25 C-6.38125 24.505 -5.7625 24.01 -5.125 23.5 C-3 22 -3 22 -1 22 C-0.67 20.35 -0.34 18.7 0 17 C1.98 16.67 3.96 16.34 6 16 C6.0825 15.401875 6.165 14.80375 6.25 14.1875 C7.26134211 11.23775219 8.24412147 10.45046238 11 9 C14.75 8.8125 14.75 8.8125 18 9 C18.33 8.34 18.66 7.68 19 7 C19.99 7 20.98 7 22 7 C22 7.66 22 8.32 22 9 C22.5775 8.67 23.155 8.34 23.75 8 C26 7 26 7 30 7 C30 7.66 30 8.32 30 9 C33.96 9.33 37.92 9.66 42 10 C42.495 11.485 42.495 11.485 43 13 C43.99 13.33 44.98 13.66 46 14 C45.34 14.33 44.68 14.66 44 15 C42.32700041 14.34938905 40.66140763 13.67966676 39 13 C27.31302697 10.62897382 16.96598532 10.88111684 6.890625 17.35546875 C-1.71945418 23.39223479 -7.39109141 30.76505092 -10 41 C-10.33 41 -10.66 41 -11 41 C-10.67 35.39 -10.34 29.78 -10 24 C-15.98003131 24.2921781 -15.98003131 24.2921781 -18.1875 27.875 C-18.785625 28.90625 -19.38375 29.9375 -20 31 C-20.8353125 31.804375 -20.8353125 31.804375 -21.6875 32.625 C-23.30693062 34.32154637 -23.6068087 35.71949044 -24 38 C-24.66 38 -25.32 38 -26 38 C-25.89927059 53.72069722 -25.89927059 53.72069722 -21.7421875 68.72265625 C-20.90786493 71.28270919 -21.08967095 72.50523748 -22 75 C-29.12340582 60.68402907 -30.38557902 44.65999223 -25.45703125 29.38671875 C-20.19727788 17.16096494 -10.98439867 7.32293245 0 0 Z " fill="#1BA7CE" transform="translate(46,31)"/>
<path d="M0 0 C2.31 0.66 4.62 1.32 7 2 C7 2.66 7 3.32 7 4 C7.86625 4.185625 7.86625 4.185625 8.75 4.375 C11.02335767 5.00648824 12.9253529 5.88858191 15 7 C15 7.66 15 8.32 15 9 C15.7425 9.268125 16.485 9.53625 17.25 9.8125 C19.95906965 10.98232553 21.91312362 11.91312362 24 14 C24.25 16.6875 24.25 16.6875 24 19 C23.34 19 22.68 19 22 19 C21.9071875 20.36125 21.9071875 20.36125 21.8125 21.75 C20.80517809 25.77928762 19.47994048 26.84575113 16 29 C15.01 29 14.02 29 13 29 C12.7525 28.21625 12.505 27.4325 12.25 26.625 C10.77077709 23.51863188 10.08619231 23.28591346 7 22 C3.69454825 20.00295623 1.27998023 18.35409264 -1.125 15.3125 C-3.10646549 12.86869256 -3.93881949 12.32798363 -7 12 C-6.67 11.01 -6.34 10.02 -6 9 C-4.02 9 -2.04 9 0 9 C0.33 7.35 0.66 5.7 1 4 C0.34 3.67 -0.32 3.34 -1 3 C-0.67 2.01 -0.34 1.02 0 0 Z " fill="#0EC2F1" transform="translate(91,29)"/>
<path d="M0 0 C3.55742419 2.79545291 6.82672847 5.77758489 10 9 C7.37749593 14.45296001 4.00581783 18.53443381 -1 22 C-1.99 22 -2.98 22 -4 22 C-4 21.34 -4 20.68 -4 20 C-2.34928604 18.97388051 -0.68029994 17.97691857 1 17 C3.40879165 14.93532144 3.96331553 14.11005341 5 11 C5.66 10.67 6.32 10.34 7 10 C7 9.34 7 8.68 7 8 C6.34 8 5.68 8 5 8 C5 7.34 5 6.68 5 6 C3.68 5.67 2.36 5.34 1 5 C1 5.99 1 6.98 1 8 C0.01 8 -0.98 8 -2 8 C-2 7.01 -2 6.02 -2 5 C-2.99 4.67 -3.98 4.34 -5 4 C-5.6875 1.9375 -5.6875 1.9375 -6 0 C-15.34826432 -1.77319126 -25.96793075 -2.31175873 -35 1 C-36.88575482 3.82068213 -36.88575482 3.82068213 -37 7 C-35.16666667 10.16666667 -35.16666667 10.16666667 -32 12 C-35.07145008 16.54574612 -37.94427618 18.03388518 -43 20 C-43.66 20.66 -44.32 21.32 -45 22 C-45.33 20.68 -45.66 19.36 -46 18 C-49.96560899 22.2891192 -49.30637176 26.22204726 -49.15625 31.7890625 C-49.1046875 32.84867188 -49.053125 33.90828125 -49 35 C-48.9690625 35.77085938 -48.938125 36.54171875 -48.90625 37.3359375 C-48.78900142 39.37167835 -48.78900142 39.37167835 -48 42 C-46.06402968 43.51294288 -46.06402968 43.51294288 -44 44 C-44.33 44.66 -44.66 45.32 -45 46 C-46.859375 45.81640625 -46.859375 45.81640625 -49 45 C-53.23843871 37.55656906 -53.72946134 30.4497142 -52.375 22.1875 C-49.63262898 12.56083207 -44.32879158 4.59200067 -36 -1 C-24.2516957 -7.31225482 -11.39969018 -6.77484979 0 0 Z " fill="#10BAE6" transform="translate(92,51)"/>
<path d="M0 0 C2.9008605 0.35298081 3.89516676 0.88728296 5.921875 3.06640625 C6.52515625 3.89011719 7.1284375 4.71382813 7.75 5.5625 C8.36359375 6.38878906 8.9771875 7.21507813 9.609375 8.06640625 C10.06828125 8.70449219 10.5271875 9.34257813 11 10 C9.41013072 13.96532102 6.64041394 16.58774495 3.625 19.5 C3.14289062 19.97308594 2.66078125 20.44617188 2.1640625 20.93359375 C0.77911231 22.29219978 -0.61035765 23.6461937 -2 25 C-2.71414062 25.7734375 -3.42828125 26.546875 -4.1640625 27.34375 C-6 29 -6 29 -9 29 C-10.82421875 27.390625 -10.82421875 27.390625 -12.6875 25.25 C-13.31011719 24.55390625 -13.93273438 23.8578125 -14.57421875 23.140625 C-16 21 -16 21 -16 17 C-14.85424805 15.41601562 -14.85424805 15.41601562 -13.26171875 13.90625 C-12.68873047 13.35066406 -12.11574219 12.79507813 -11.52539062 12.22265625 C-10.91888672 11.65417969 -10.31238281 11.08570312 -9.6875 10.5 C-4.46209439 5.59048134 -4.46209439 5.59048134 0 0 Z " fill="#0CC3EF" transform="translate(56,92)"/>
<path d="M0 0 C1.14843858 4.47388364 1.04131966 8.78766372 0.87890625 13.36328125 C0.84348976 14.55125557 0.84348976 14.55125557 0.80735779 15.76322937 C0.73110306 18.27985281 0.64691584 20.79613841 0.5625 23.3125 C0.50924101 25.0240723 0.4565009 26.73566083 0.40429688 28.44726562 C0.27553999 32.63172224 0.13967078 36.81589403 0 41 C-0.99 40.505 -0.99 40.505 -2 40 C-2 27.46 -2 14.92 -2 2 C-15.2 2 -28.4 2 -42 2 C-42 6.62 -42 11.24 -42 16 C-33.42 16 -24.84 16 -16 16 C-16 18.31 -16 20.62 -16 23 C-24.58 23 -33.16 23 -42 23 C-42 27.29 -42 31.58 -42 36 C-36.06 36 -30.12 36 -24 36 C-24 36.99 -24 37.98 -24 39 C-24.66 38.67 -25.32 38.34 -26 38 C-28.87910588 37.76725791 -31.74146495 37.58027243 -34.625 37.4375 C-35.82769531 37.37272461 -35.82769531 37.37272461 -37.0546875 37.30664062 C-39.0362511 37.20048543 -41.01810271 37.09973145 -43 37 C-43 32.05 -43 27.1 -43 22 C-34.42 22 -25.84 22 -17 22 C-17 20.35 -17 18.7 -17 17 C-25.58 17 -34.16 17 -43 17 C-43 11.39 -43 5.78 -43 0 C-37.84056632 -0.16618592 -32.68127705 -0.32874989 -27.52148438 -0.48217773 C-25.7678382 -0.53540187 -24.01425407 -0.59071459 -22.26074219 -0.64819336 C-19.73386002 -0.73065404 -17.20684673 -0.80549166 -14.6796875 -0.87890625 C-13.51214432 -0.91945885 -13.51214432 -0.91945885 -12.3210144 -0.96083069 C-8.07321379 -1.07613977 -4.1887849 -0.86513847 0 0 Z " fill="#2B7FA1" transform="translate(118,75)"/>
<path d="M0 0 C0.6875 1.625 0.6875 1.625 1 4 C0.54625 4.845625 0.0925 5.69125 -0.375 6.5625 C-1.9723258 9.94145843 -2.27203827 11.84765658 -2.5 15.5 C-2.80898463 20.2248899 -3.49100198 24.49100198 -7 28 C-10 28.125 -10 28.125 -13 28 C-15.74155035 25.25844965 -14.76558586 17.7417804 -15 14 C-15.07863281 13.26007813 -15.15726563 12.52015625 -15.23828125 11.7578125 C-15.53173226 7.98487093 -15.01923602 7.02260232 -12.5 4.0625 C-11.675 3.381875 -10.85 2.70125 -10 2 C-9.67 2.99 -9.34 3.98 -9 5 C-8.401875 4.67 -7.80375 4.34 -7.1875 4 C-5 3 -5 3 -2 3 C-1.67 2.34 -1.34 1.68 -1 1 C-0.67 0.67 -0.34 0.34 0 0 Z " fill="#0DCAF7" transform="translate(57,66)"/>
<path d="M0 0 C0.33 0 0.66 0 1 0 C1 15.18 1 30.36 1 46 C-1.91319598 44.54340201 -2.01711259 42.6538411 -3.0625 39.625 C-3.40410156 38.64789063 -3.74570313 37.67078125 -4.09765625 36.6640625 C-7.62525035 26.24926086 -6.92760655 14.29582457 -3 4 C-1.45703125 1.66796875 -1.45703125 1.66796875 0 0 Z " fill="#000000" transform="translate(129,61)"/>
<path d="M0 0 C0.79535156 0.25652344 1.59070313 0.51304688 2.41015625 0.77734375 C9.04052267 3.16509549 14.4405813 6.71422739 20 11 C20.70898438 11.54269531 21.41796875 12.08539063 22.1484375 12.64453125 C26.72061931 16.33026964 26.72061931 16.33026964 27.8359375 19.00390625 C27.89007813 19.66261719 27.94421875 20.32132813 28 21 C25.5625 23.75 25.5625 23.75 23 26 C22.34 25.67 21.68 25.34 21 25 C21.495 23.515 21.495 23.515 22 22 C22.66 22 23.32 22 24 22 C24.12213894 19.65851769 24.12213894 19.65851769 23 17 C20.98599471 15.50120536 18.92334898 14.30486491 16.71484375 13.11328125 C16.14894531 12.74589844 15.58304688 12.37851562 15 12 C15 11.34 15 10.68 15 10 C12.34771188 8.92474806 9.71631546 7.90543849 7 7 C7 6.34 7 5.68 7 5 C6.175 4.87625 5.35 4.7525 4.5 4.625 C0.60227933 3.92897845 -3.16739669 2.99119051 -7 2 C-7 1.34 -7 0.68 -7 0 C-9.83355099 0.14228301 -12.66678787 0.28873416 -15.5 0.4375 C-16.68722656 0.49647461 -16.68722656 0.49647461 -17.8984375 0.55664062 C-22.97385441 0.82705218 -27.96375445 1.3127142 -33 2 C-33.33 2.99 -33.66 3.98 -34 5 C-37.47823115 6.15941038 -39.45895578 5.70820884 -43 5 C-32.25850981 -4.09898077 -12.83233093 -4.24510003 0 0 Z " fill="#2EA5C9" transform="translate(91,26)"/>
<path d="M0 0 C3.55742419 2.79545291 6.82672847 5.77758489 10 9 C7.37749593 14.45296001 4.00581783 18.53443381 -1 22 C-1.99 22 -2.98 22 -4 22 C-4 21.34 -4 20.68 -4 20 C-2.34928604 18.97388051 -0.68029994 17.97691857 1 17 C3.40879165 14.93532144 3.96331553 14.11005341 5 11 C5.66 10.67 6.32 10.34 7 10 C7 9.34 7 8.68 7 8 C6.34 8 5.68 8 5 8 C5 7.34 5 6.68 5 6 C3.68 5.67 2.36 5.34 1 5 C1 5.99 1 6.98 1 8 C0.01 8 -0.98 8 -2 8 C-2 7.01 -2 6.02 -2 5 C-2.99 4.67 -3.98 4.34 -5 4 C-5.6875 1.9375 -5.6875 1.9375 -6 0 C-15.500961 -1.80215497 -25.75837889 -2.08054037 -35 1 C-36.26136833 3.00032369 -36.26136833 3.00032369 -37 5 C-38.32 4.34 -39.64 3.68 -41 3 C-28.08429492 -6.31336556 -14.1932221 -8.43504922 0 0 Z " fill="#1DB0DB" transform="translate(92,51)"/>
<path d="M0 0 C1.32 0.33 2.64 0.66 4 1 C4 1.66 4 2.32 4 3 C4.7425 3.268125 5.485 3.53625 6.25 3.8125 C8.95906965 4.98232553 10.91312362 5.91312362 13 8 C13.25 10.6875 13.25 10.6875 13 13 C12.34 13 11.68 13 11 13 C10.9175 13.61875 10.835 14.2375 10.75 14.875 C10 17 10 17 8.25 18.3125 C5.48679971 19.1568112 3.75194864 18.76443018 1 18 C1.020625 16.700625 1.04125 15.40125 1.0625 14.0625 C1.07004972 9.30617675 0.59887117 4.71611047 0 0 Z " fill="#0BCEFA" transform="translate(102,35)"/>
<path d="M0 0 C2.475 0.495 2.475 0.495 5 1 C5 5 5 5 3.0625 7.1875 C2.381875 7.785625 1.70125 8.38375 1 9 C0.67 9.33 0.34 9.66 0 10 C-0.66 10.66 -1.32 11.32 -2 12 C-2.99 11.67 -3.98 11.34 -5 11 C-6.69867188 10.85222064 -8.40177489 10.75252934 -10.10546875 10.68359375 C-11.08837891 10.64169922 -12.07128906 10.59980469 -13.08398438 10.55664062 C-14.10814453 10.51732422 -15.13230469 10.47800781 -16.1875 10.4375 C-17.22326172 10.39431641 -18.25902344 10.35113281 -19.32617188 10.30664062 C-21.8839819 10.20055634 -24.44188845 10.09849854 -27 10 C-27 9.34 -27 8.68 -27 8 C-28.83468832 8.05563651 -28.83468832 8.05563651 -31 9 C-31.825 9.99 -32.65 10.98 -33.5 12 C-36.02045977 15.02455172 -36.41608995 15.39255762 -40 16 C-39.04367001 14.70684939 -38.08486149 13.41553147 -37.125 12.125 C-36.32449219 11.04605469 -36.32449219 11.04605469 -35.5078125 9.9453125 C-34 8 -34 8 -32 6 C-30.22244954 6.20912358 -28.44581273 6.42996957 -26.67578125 6.6953125 C-17.60258199 7.72846512 -9.35914535 7.78527337 -1 4 C0.32 4 1.64 4 3 4 C3 3.01 3 2.02 3 1 C2.01 0.67 1.02 0.34 0 0 Z " fill="#26A7D1" transform="translate(91,110)"/>
<path d="M0 0 C2.0625 0.4375 2.0625 0.4375 4 1 C-8.70881433 13.11770668 -22.99340297 17.48324461 -40.13818359 17.42871094 C-47.77856198 17.23403415 -56.87252199 16.67960273 -62.8359375 11.36328125 C-63.41214844 10.68845703 -63.41214844 10.68845703 -64 10 C-62.68 9.34 -61.36 8.68 -60 8 C-59.67 8.99 -59.34 9.98 -59 11 C-54.68764312 13.79027862 -49.7979507 13.74057634 -44.8125 14.1875 C-43.4502832 14.32961914 -43.4502832 14.32961914 -42.06054688 14.47460938 C-34.56781233 15.17722085 -27.34942979 15.12697579 -20.1875 12.5625 C-19.47980469 12.31628906 -18.77210937 12.07007813 -18.04296875 11.81640625 C-15.96089508 11.02636661 -15.96089508 11.02636661 -13.92578125 9.90234375 C-12 9 -12 9 -9 9 C-9 8.34 -9 7.68 -9 7 C-6.75935201 4.28763664 -4.01813106 2.74733903 -1 1 C-0.67 0.67 -0.34 0.34 0 0 Z " fill="#3295B8" transform="translate(111,118)"/>
<path d="M0 0 C1.8125 0.1875 1.8125 0.1875 4 1 C5.75 3.5625 5.75 3.5625 7 6 C5.02 5.34 3.04 4.68 1 4 C0.67 4.66 0.34 5.32 0 6 C0.66 6 1.32 6 2 6 C1.34 7.32 0.68 8.64 0 10 C-1.32 9.67 -2.64 9.34 -4 9 C-4.33 9.66 -4.66 10.32 -5 11 C-5.66 11 -6.32 11 -7 11 C-7.433125 12.11375 -7.433125 12.11375 -7.875 13.25 C-9 16 -9 16 -10.1875 18.125 C-11.31725799 20.16049285 -11.31725799 20.16049285 -10 23 C-8.68 22.67 -7.36 22.34 -6 22 C-6.99 24.475 -6.99 24.475 -8 27 C-7.34 27 -6.68 27 -6 27 C-6 27.66 -6 28.32 -6 29 C-9 29 -9 29 -10.82421875 27.390625 C-11.43910156 26.68421875 -12.05398437 25.9778125 -12.6875 25.25 C-13.31011719 24.55390625 -13.93273438 23.8578125 -14.57421875 23.140625 C-16 21 -16 21 -16 17 C-14.85424805 15.41601562 -14.85424805 15.41601562 -13.26171875 13.90625 C-12.68873047 13.35066406 -12.11574219 12.79507813 -11.52539062 12.22265625 C-10.91888672 11.65417969 -10.31238281 11.08570312 -9.6875 10.5 C-4.46209439 5.59048134 -4.46209439 5.59048134 0 0 Z " fill="#28B3DD" transform="translate(56,92)"/>
<path d="M0 0 C13.2 0 26.4 0 40 0 C40.495 19.8 40.495 19.8 41 40 C39.02 40.495 39.02 40.495 37 41 C37.33 40.01 37.66 39.02 38 38 C38.1539263 35.19839498 38.25738045 32.41701575 38.31640625 29.61328125 C38.33718735 28.79627243 38.35796844 27.97926361 38.37937927 27.13749695 C38.44473079 24.52924966 38.50369273 21.92090225 38.5625 19.3125 C38.60569892 17.54360946 38.64931365 15.77472903 38.69335938 14.00585938 C38.80039743 9.67067537 38.90170544 5.33539071 39 1 C37.9989624 1.16749756 36.9979248 1.33499512 35.96655273 1.50756836 C32.06217283 1.99228149 28.46275317 2.02557999 24.53515625 1.87890625 C23.85698349 1.85529526 23.17881073 1.83168427 22.48008728 1.80735779 C20.34063309 1.73155017 18.2016196 1.647177 16.0625 1.5625 C14.60093212 1.50919595 13.13934355 1.45645633 11.67773438 1.40429688 C8.11822702 1.27604979 4.55906183 1.14012555 1 1 C1 4.96 1 8.92 1 13 C9.25 13 17.5 13 26 13 C26 13.33 26 13.66 26 14 C17.42 14 8.84 14 0 14 C0 9.38 0 4.76 0 0 Z " fill="#2FBCE9" transform="translate(76,77)"/>
<path d="M0 0 C1.54296875 1.12890625 1.54296875 1.12890625 3 3 C2.92578125 5.77734375 2.92578125 5.77734375 2.3125 8.9375 C2.12300781 9.97777344 1.93351562 11.01804687 1.73828125 12.08984375 C1 15 1 15 -0.12890625 17.2421875 C-0.56009766 18.11230469 -0.56009766 18.11230469 -1 19 C-0.07451225 21.69933926 0.42373537 22.71186768 3 24 C3 23.34 3 22.68 3 22 C3.99 22.33 4.98 22.66 6 23 C5.34 23.99 4.68 24.98 4 26 C0.9375 26.25 0.9375 26.25 -2 26 C-4.73985635 23.26014365 -3.77013098 15.73979215 -4 12 C-4.06703125 11.26007813 -4.1340625 10.52015625 -4.203125 9.7578125 C-4.4190585 6.28745273 -3.99653295 4.99490777 -2 2.0625 C-1.34 1.381875 -0.68 0.70125 0 0 Z " fill="#11BFEE" transform="translate(46,68)"/>
<path d="M0 0 C2.68777802 -0.0544207 5.37443212 -0.09387266 8.0625 -0.125 C8.81466797 -0.14175781 9.56683594 -0.15851562 10.34179688 -0.17578125 C15.29327709 -0.21865121 19.30414451 0.41600625 24 2 C23.67 3.32 23.34 4.64 23 6 C22.01 5.67 21.02 5.34 20 5 C16.47783818 4.93076832 12.96746488 5.00267576 9.4453125 5.0625 C6.46060014 5.00835556 3.8888979 4.70300177 1 4 C0.67 2.68 0.34 1.36 0 0 Z " fill="#0CC7F6" transform="translate(67,27)"/>
<path d="M0 0 C0.33 0 0.66 0 1 0 C1.25 6.625 1.25 6.625 -1 10 C-1.51671058 16.48077672 -1.68515277 23.68067712 0 30 C1.93597032 31.51294288 1.93597032 31.51294288 4 32 C3.67 32.66 3.34 33.32 3 34 C1.140625 33.81640625 1.140625 33.81640625 -1 33 C-5.21739345 25.59352818 -6.00183547 18.07827745 -4.1875 9.875 C-3.2180238 6.34582765 -1.76613403 3.21115279 0 0 Z " fill="#35A6CF" transform="translate(44,63)"/>
<path d="M0 0 C0.99 0 1.98 0 3 0 C3 0.66 3 1.32 3 2 C3.86625 1.505 3.86625 1.505 4.75 1 C7 0 7 0 11 0 C11 0.66 11 1.32 11 2 C14.96 2.33 18.92 2.66 23 3 C23.33 3.99 23.66 4.98 24 6 C24.99 6.33 25.98 6.66 27 7 C26.34 7.33 25.68 7.66 25 8 C23.32700041 7.34938905 21.66140763 6.67966676 20 6 C15.49230829 5.06984139 11.16031333 4.83603026 6.5625 4.8125 C4.67724609 4.79123047 4.67724609 4.79123047 2.75390625 4.76953125 C-1.20074132 5.01232439 -4.25531545 5.77754169 -8 7 C-5.85199157 4.63719073 -3.83319533 3.41659766 -1 2 C-0.67 1.34 -0.34 0.68 0 0 Z " fill="#26ADD8" transform="translate(65,38)"/>
<path d="M0 0 C0.66 0.33 1.32 0.66 2 1 C0.43599401 5.14001585 -0.32177717 6.69171689 -4.4375 8.5625 C-6.2009375 9.2740625 -6.2009375 9.2740625 -8 10 C-10.15449966 12.40144575 -10.15449966 12.40144575 -12 15 C-13.2684375 15.9590625 -13.2684375 15.9590625 -14.5625 16.9375 C-17.39350508 19.33296583 -18.54240237 21.62451076 -20 25 C-20.66 25 -21.32 25 -22 25 C-18.17245291 14.47424551 -9.16475341 6.10983561 0 0 Z " fill="#28A1C3" transform="translate(46,31)"/>
<path d="M0 0 C0.99 0 1.98 0 3 0 C2.125 6.875 2.125 6.875 1 8 C-0.92667507 8.08748207 -2.85651861 8.10697334 -4.78515625 8.09765625 C-5.95498047 8.09443359 -7.12480469 8.09121094 -8.33007812 8.08789062 C-9.56177734 8.07951172 -10.79347656 8.07113281 -12.0625 8.0625 C-13.91584961 8.05573242 -13.91584961 8.05573242 -15.80664062 8.04882812 C-18.87114117 8.03699608 -21.93554721 8.02051173 -25 8 C-25 8.99 -25 9.98 -25 11 C-24.34 11 -23.68 11 -23 11 C-23 11.66 -23 12.32 -23 13 C-23.66 13 -24.32 13 -25 13 C-25 13.99 -25 14.98 -25 16 C-24.34 16 -23.68 16 -23 16 C-23 16.66 -23 17.32 -23 18 C-19.04 18.33 -15.08 18.66 -11 19 C-11 19.33 -11 19.66 -11 20 C-15.95 20 -20.9 20 -26 20 C-26 15.71 -26 11.42 -26 7 C-17.42 7 -8.84 7 0 7 C0 4.69 0 2.38 0 0 Z " fill="#25B4E3" transform="translate(102,91)"/>
<path d="M0 0 C-3.81295181 1.90647591 -8.77207993 1.03052587 -12.99609375 0.9609375 C-18.10129252 0.9101395 -22.9464729 1.25989534 -28 2 C-28.33 2.99 -28.66 3.98 -29 5 C-32.47823115 6.15941038 -34.45895578 5.70820884 -38 5 C-29.76082781 -1.97929877 -9.66979814 -6.13565872 0 0 Z " fill="#3497B7" transform="translate(86,26)"/>
<path d="M0 0 C0.99 0 1.98 0 3 0 C3.12385084 5.17772746 3.21445571 10.35458788 3.2746582 15.53344727 C3.29976061 17.29401676 3.33385028 19.05448247 3.37719727 20.81469727 C3.43804115 23.34938179 3.46625113 25.88268575 3.48828125 28.41796875 C3.51408768 29.20149216 3.5398941 29.98501556 3.56648254 30.7922821 C3.56864606 35.03383589 3.40074364 36.51498347 0.59448242 39.91137695 C-0.68978638 40.94524536 -0.68978638 40.94524536 -2 42 C-2.66 42.66 -3.32 43.32 -4 44 C-4.99 43.67 -5.98 43.34 -7 43 C-5.875 40.0625 -5.875 40.0625 -4 37 C-0.8828125 36.30859375 -0.8828125 36.30859375 2 36 C1.88188994 31.19432577 1.75765177 26.38886432 1.62768555 21.58349609 C1.58432462 19.94812347 1.54265039 18.31270523 1.50268555 16.67724609 C1.44501088 14.32896159 1.38130871 11.98090696 1.31640625 9.6328125 C1.29969376 8.89942657 1.28298126 8.16604065 1.26576233 7.41043091 C1.21362038 3.57797692 1.21362038 3.57797692 0 0 Z " fill="#0ECDFA" transform="translate(112,78)"/>
<path d="M0 0 C-3.44264817 1.07841991 -6.47381623 1.00581472 -10.0625 0.875 C-16.23504544 0.83319947 -22.37273989 1.25299506 -28 4 C-29.33385448 6.00794758 -29.33385448 6.00794758 -30 8 C-31.32 7.34 -32.64 6.68 -34 6 C-23.95995013 -1.23976385 -12.03456033 -5.63700595 0 0 Z " fill="#2D95B5" transform="translate(85,48)"/>
<path d="M0 0 C0.66 0.33 1.32 0.66 2 1 C2 2.65 2 4.3 2 6 C1.34 6 0.68 6 0 6 C-0.0825 6.61875 -0.165 7.2375 -0.25 7.875 C-1 10 -1 10 -2.75 11.3125 C-5.51320029 12.1568112 -7.24805136 11.76443018 -10 11 C-9.67 8.36 -9.34 5.72 -9 3 C-7.35 3.33 -5.7 3.66 -4 4 C-4 4.99 -4 5.98 -4 7 C-3.01 7 -2.02 7 -1 7 C-1 6.34 -1 5.68 -1 5 C-0.34 5 0.32 5 1 5 C0.67 3.35 0.34 1.7 0 0 Z " fill="#0ACAF4" transform="translate(113,42)"/>
<path d="M0 0 C-0.99 0.66 -1.98 1.32 -3 2 C-9.13265411 6.50435923 -15.23181673 11.03295329 -21 16 C-20.67 14.68 -20.34 13.36 -20 12 C-19.34 12 -18.68 12 -18 12 C-17.67 10.35 -17.34 8.7 -17 7 C-15.02 6.67 -13.04 6.34 -11 6 C-10.9175 5.401875 -10.835 4.80375 -10.75 4.1875 C-8.83559384 -1.39618462 -5.13206894 -1.28301723 0 0 Z " fill="#1CB6E0" transform="translate(63,41)"/>
<path d="M0 0 C0.66 0 1.32 0 2 0 C1.855625 0.78503906 1.71125 1.57007812 1.5625 2.37890625 C0.57001253 7.99610964 -0.2593193 13.29497537 0 19 C-1.65 19.66 -3.3 20.32 -5 21 C-4.74292265 18.62279061 -4.46982932 16.24923394 -4.1875 13.875 C-4.11724609 13.20984375 -4.04699219 12.5446875 -3.97460938 11.859375 C-3.42314918 7.35945979 -2.23570772 3.93239549 0 0 Z " fill="#36A3CC" transform="translate(57,70)"/>
<path d="M0 0 C0.598125 0.53625 1.19625 1.0725 1.8125 1.625 C1.8125 2.285 1.8125 2.945 1.8125 3.625 C1.11125 3.30144531 0.41 2.97789063 -0.3125 2.64453125 C-3.44340799 1.53425002 -5.87450062 1.32517729 -9.1875 1.3125 C-10.198125 1.29574219 -11.20875 1.27898438 -12.25 1.26171875 C-16.94412945 1.84224274 -20.06648651 4.17545878 -23.1875 7.625 C-22.85216224 4.49518088 -22.18683599 3.62438841 -19.8125 1.4375 C-14.08769295 -2.51534296 -6.32255495 -2.72737665 0 0 Z " fill="#339ABB" transform="translate(82.1875,62.375)"/>
<path d="M0 0 C3.057952 1.73559438 5.63379989 3.38472619 8 6 C5.56312081 11.48297817 1.92215781 15.59235229 -3 19 C-3.99 19 -4.98 19 -6 19 C-6 18.34 -6 17.68 -6 17 C-4.34928604 15.97388051 -2.68029994 14.97691857 -1 14 C1.40879165 11.93532144 1.96331553 11.11005341 3 8 C3.66 7.67 4.32 7.34 5 7 C5 6.34 5 5.68 5 5 C4.34 5 3.68 5 3 5 C3 4.34 3 3.68 3 3 C2.01 2.67 1.02 2.34 0 2 C0 1.34 0 0.68 0 0 Z " fill="#3795B7" transform="translate(94,54)"/>
<path d="M0 0 C2.0625 0.4375 2.0625 0.4375 4 1 C-0.80027552 5.39174143 -5.82180166 9.70458805 -12 12 C-14.26953125 11.62890625 -14.26953125 11.62890625 -16 11 C-13.35261084 9.5393715 -12.10551666 9 -9 9 C-9 8.34 -9 7.68 -9 7 C-6.75935201 4.28763664 -4.01813106 2.74733903 -1 1 C-0.67 0.67 -0.34 0.34 0 0 Z " fill="#3CA4C9" transform="translate(111,118)"/>
<path d="M0 0 C1.2065625 0.0309375 1.2065625 0.0309375 2.4375 0.0625 C2.4375 3.54373131 2.02598696 3.92770636 -0.3125 6.3125 C-0.82296875 6.85390625 -1.3334375 7.3953125 -1.859375 7.953125 C-3.5625 9.0625 -3.5625 9.0625 -5.6875 8.89453125 C-7.5625 8.0625 -7.5625 8.0625 -8.8125 5.5 C-9.06 4.695625 -9.3075 3.89125 -9.5625 3.0625 C-8.9025 3.0625 -8.2425 3.0625 -7.5625 3.0625 C-7.5625 4.0525 -7.5625 5.0425 -7.5625 6.0625 C-6.2425 6.0625 -4.9225 6.0625 -3.5625 6.0625 C-3.583125 5.258125 -3.60375 4.45375 -3.625 3.625 C-3.54067676 0.16774696 -3.45725304 0.08432324 0 0 Z " fill="#29ADD3" transform="translate(34.5625,102.9375)"/>
<path d="M0 0 C0.33 0 0.66 0 1 0 C1.04898438 0.97839844 1.09796875 1.95679687 1.1484375 2.96484375 C1.55892238 10.16248379 2.15869223 17.00303049 4 24 C3.01 23.67 2.02 23.34 1 23 C-1.90805409 16.41861443 -1.3940657 9.06568961 -1 2 C-0.67 1.34 -0.34 0.68 0 0 Z " fill="#2A94B3" transform="translate(34,72)"/>
<path d="M0 0 C0.33 0 0.66 0 1 0 C1.34060098 5.56314939 0.29355673 8.97181793 -2 14 C-2.77028459 16.65164634 -3.38556881 19.30595554 -4 22 C-4.33 22 -4.66 22 -5 22 C-5.29586617 13.71574711 -4.03172754 7.33041371 0 0 Z " fill="#298BAC" transform="translate(44,63)"/>
<path d="M0 0 C1.60294922 0.01353516 1.60294922 0.01353516 3.23828125 0.02734375 C4.04652344 0.03894531 4.85476562 0.05054688 5.6875 0.0625 C5.3575 1.0525 5.0275 2.0425 4.6875 3.0625 C3.51380859 3.04509766 3.51380859 3.04509766 2.31640625 3.02734375 C1.30449219 3.01832031 0.29257813 3.00929687 -0.75 3 C-2.26400391 2.98259766 -2.26400391 2.98259766 -3.80859375 2.96484375 C-6.25271067 2.77637324 -6.25271067 2.77637324 -7.3125 4.0625 C-8.97867115 4.10313832 -10.64638095 4.105221 -12.3125 4.0625 C-11.9825 3.0725 -11.6525 2.0825 -11.3125 1.0625 C-7.47525828 0.15836327 -3.93747726 -0.04326898 0 0 Z " fill="#09C1EF" transform="translate(72.3125,48.9375)"/>
<path d="M0 0 C3.25031784 0.13923538 6.50016061 0.28754185 9.75 0.4375 C10.67039062 0.47681641 11.59078125 0.51613281 12.5390625 0.55664062 C13.42851563 0.59853516 14.31796875 0.64042969 15.234375 0.68359375 C16.45979004 0.73858032 16.45979004 0.73858032 17.70996094 0.79467773 C19.9034423 0.99134275 21.88396413 1.40300594 24 2 C24 2.33 24 2.66 24 3 C16.08 3 8.16 3 0 3 C0 2.01 0 1.02 0 0 Z " fill="#18B5E6" transform="translate(77,87)"/>
<path d="M0 0 C6.93 0 13.86 0 21 0 C21.33 0.99 21.66 1.98 22 3 C22.99 3.33 23.98 3.66 25 4 C24.01 4.495 24.01 4.495 23 5 C22.32582031 4.71382812 21.65164062 4.42765625 20.95703125 4.1328125 C16.92290552 2.58737464 12.9666438 2.28704068 8.6875 1.875 C7.85154297 1.78863281 7.01558594 1.70226563 6.15429688 1.61328125 C4.1035237 1.40234458 2.05184097 1.20028354 0 1 C0 0.67 0 0.34 0 0 Z " fill="#2589AA" transform="translate(67,41)"/>
<path d="M0 0 C2.72869407 0.03287583 5.2966618 0.56397771 8 1 C8 1.33 8 1.66 8 2 C6.948125 2.04125 5.89625 2.0825 4.8125 2.125 C0.72883341 3.06110789 0.72883341 3.06110789 -1.6875 6 C-4.07680818 9.09964304 -4.42885268 9.39854361 -8 10 C-7.04367001 8.70684939 -6.08486149 7.41553147 -5.125 6.125 C-4.59132812 5.40570313 -4.05765625 4.68640625 -3.5078125 3.9453125 C-2 2 -2 2 0 0 Z " fill="#3591B6" transform="translate(59,116)"/>
<path d="M0 0 C0.90492187 0.23396484 0.90492187 0.23396484 1.828125 0.47265625 C3.02695313 0.76462891 3.02695313 0.76462891 4.25 1.0625 C5.43335937 1.35833984 5.43335937 1.35833984 6.640625 1.66015625 C9.10394822 2.01497267 10.65604132 1.76877544 13 1 C13 1.66 13 2.32 13 3 C8.64705882 7 8.64705882 7 5 7 C4.731875 6.195625 4.46375 5.39125 4.1875 4.5625 C3.795625 3.716875 3.40375 2.87125 3 2 C2.01 1.67 1.02 1.34 0 1 C0 0.67 0 0.34 0 0 Z " fill="#379EC3" transform="translate(99,51)"/>
<path d="M0 0 C1.32 1.32 2.64 2.64 4 4 C2.52278578 7.45201639 0.56205999 9.64961936 -2.125 12.25 C-2.84945312 12.95640625 -3.57390625 13.6628125 -4.3203125 14.390625 C-4.87460937 14.92171875 -5.42890625 15.4528125 -6 16 C-6.33 15.01 -6.66 14.02 -7 13 C-5.824375 12.1028125 -5.824375 12.1028125 -4.625 11.1875 C-1.85425677 9.08914751 -1.85425677 9.08914751 0 6 C0.16699232 2.87478167 0.16699232 2.87478167 0 0 Z " fill="#36A2C0" transform="translate(63,98)"/>
<path d="M0 0 C-0.61875 1.010625 -1.2375 2.02125 -1.875 3.0625 C-3.92943955 6.63227085 -5.02269575 10.009341 -6 14 C-6.33 14 -6.66 14 -7 14 C-6.94011859 11.87420987 -6.85137256 9.74921587 -6.75 7.625 C-6.70359375 6.44164063 -6.6571875 5.25828125 -6.609375 4.0390625 C-6 1 -6 1 -4.078125 -0.4765625 C-2 -1 -2 -1 0 0 Z " fill="#26ABD2" transform="translate(42,58)"/>
<path d="M0 0 C3.55780196 0.60990891 6.6828589 1.5783681 10 3 C10 4.65 10 6.3 10 8 C10.99 8.33 11.98 8.66 13 9 C12.67 9.66 12.34 10.32 12 11 C7.80393443 8.42514158 4.91726652 5.95914742 2 2 C1.34 1.34 0.68 0.68 0 0 Z " fill="#1EA8D3" transform="translate(86,40)"/>
<path d="M0 0 C0.99 0.33 1.98 0.66 3 1 C2.62005832 3.75457718 2.1926367 4.82020574 0.125 6.75 C-2 8 -2 8 -5 8 C-3.88213958 4.64641875 -2.25245881 2.68841859 0 0 Z " fill="#0FC8F8" transform="translate(59,99)"/>
<path d="M0 0 C2.43270079 0.94169063 3.72437686 1.52981934 5.0625 3.8125 C5 6 5 6 2.5625 8.75 C1.2940625 9.86375 1.2940625 9.86375 0 11 C-0.66 10.67 -1.32 10.34 -2 10 C-1.67 9.01 -1.34 8.02 -1 7 C-0.34 7 0.32 7 1 7 C0.67 4.69 0.34 2.38 0 0 Z " fill="#3799C0" transform="translate(114,41)"/>
<path d="M0 0 C0.75 1.625 0.75 1.625 1 4 C-0.9375 7.25 -0.9375 7.25 -3 10 C-3.33 9.01 -3.66 8.02 -4 7 C-5.32 7.33 -6.64 7.66 -8 8 C-5.33333333 5.33333333 -2.66666667 2.66666667 0 0 Z " fill="#082F3A" transform="translate(58,112)"/>
<path d="M0 0 C0.66 0 1.32 0 2 0 C2.66 1.32 3.32 2.64 4 4 C3.21625 4.7425 2.4325 5.485 1.625 6.25 C-0.56504531 8.54433318 -1.82731386 10.12158858 -3 13 C-3.46192125 8.07284004 -1.8275283 4.49267375 0 0 Z " fill="#22B4DF" transform="translate(24,56)"/>
<path d="M0 0 C0.66 0.33 1.32 0.66 2 1 C2 2.65 2 4.3 2 6 C1.34 6 0.68 6 0 6 C-0.33 7.32 -0.66 8.64 -1 10 C-1.66 10 -2.32 10 -3 10 C-3 9.34 -3 8.68 -3 8 C-4.32 8 -5.64 8 -7 8 C-6.67 6.68 -6.34 5.36 -6 4 C-5.34 4 -4.68 4 -4 4 C-4 4.99 -4 5.98 -4 7 C-3.01 7 -2.02 7 -1 7 C-1 6.34 -1 5.68 -1 5 C-0.34 5 0.32 5 1 5 C0.67 3.35 0.34 1.7 0 0 Z " fill="#25C3F1" transform="translate(113,42)"/>
<path d="M0 0 C-3.3 2.97 -6.6 5.94 -10 9 C-10.33 8.01 -10.66 7.02 -11 6 C-10.01 5.67 -9.02 5.34 -8 5 C-7.67 3.35 -7.34 1.7 -7 0 C-4 -1 -4 -1 0 0 Z " fill="#29A8CB" transform="translate(53,48)"/>
<path d="M0 0 C0.66 0.33 1.32 0.66 2 1 C0.875 3.9375 0.875 3.9375 -1 7 C-4.1875 7.875 -4.1875 7.875 -7 8 C-6.67 7.34 -6.34 6.68 -6 6 C-5.34 6 -4.68 6 -4 6 C-3.896875 5.38125 -3.79375 4.7625 -3.6875 4.125 C-3 2 -3 2 0 0 Z " fill="#22A2C9" transform="translate(46,31)"/>
<path d="M0 0 C0 0.66 0 1.32 0 2 C0.66 2.33 1.32 2.66 2 3 C-2.43076923 5.09230769 -2.43076923 5.09230769 -5.3125 4.625 C-5.869375 4.41875 -6.42625 4.2125 -7 4 C-4.83989616 0.75984424 -3.8842653 0 0 0 Z " fill="#1CB7EA" transform="translate(93,127)"/>
<path d="M0 0 C0.66 0 1.32 0 2 0 C2.33 0.99 2.66 1.98 3 3 C3.66 3.33 4.32 3.66 5 4 C5 3.34 5 2.68 5 2 C5.99 2.33 6.98 2.66 8 3 C7.01 4.485 7.01 4.485 6 6 C2.875 6.1875 2.875 6.1875 0 6 C0 4.02 0 2.04 0 0 Z " fill="#1BBBE5" transform="translate(44,88)"/>
<path d="M0 0 C0 0.99 0 1.98 0 3 C-0.7425 3.6496875 -0.7425 3.6496875 -1.5 4.3125 C-3.3314563 6.02209709 -3.3314563 6.02209709 -3.1875 9.1875 C-3.125625 10.115625 -3.06375 11.04375 -3 12 C-4.32 11.01 -5.64 10.02 -7 9 C-5.44499019 5.18315774 -2.96404505 2.80804268 0 0 Z " fill="#3C97B7" transform="translate(46,103)"/>
<path d="M0 0 C12.01989891 -0.5683665 12.01989891 -0.5683665 16 3 C16 3.66 16 4.32 16 5 C11.25 3.125 11.25 3.125 9 2 C7.46331135 1.77532169 5.92031946 1.59203195 4.375 1.4375 C3.55773437 1.35371094 2.74046875 1.26992188 1.8984375 1.18359375 C1.27195312 1.12300781 0.64546875 1.06242187 0 1 C0 0.67 0 0.34 0 0 Z " fill="#2C9DC2" transform="translate(68,61)"/>
<path d="M0 0 C0.33 0.99 0.66 1.98 1 3 C0.566875 3.37125 0.13375 3.7425 -0.3125 4.125 C-2.46152985 6.51281095 -3.64757984 9.1019568 -5 12 C-5.66 12 -6.32 12 -7 12 C-5.44298069 7.32894208 -2.91552627 3.91294315 0 0 Z " fill="#2E8AAD" transform="translate(31,44)"/>
<path d="M0 0 C2.9375 1.25 2.9375 1.25 6 3 C6.875 5.1875 6.875 5.1875 7 7 C6.34 7 5.68 7 5 7 C5 6.34 5 5.68 5 5 C3.68 5 2.36 5 1 5 C1 4.34 1 3.68 1 3 C0.34 3 -0.32 3 -1 3 C-0.67 2.01 -0.34 1.02 0 0 Z " fill="#1CC4F2" transform="translate(57,95)"/>
<path d="M0 0 C3.24208567 0.35049575 4.61527704 0.56221181 6.8125 3.0625 C7.204375 3.701875 7.59625 4.34125 8 5 C5.69 4.67 3.38 4.34 1 4 C0.67 2.68 0.34 1.36 0 0 Z " fill="#16C6FA" transform="translate(103,41)"/>
<path d="M0 0 C-0.33 0.99 -0.66 1.98 -1 3 C-4.47823115 4.15941038 -6.45895578 3.70820884 -10 3 C-6.68152292 -0.06320961 -4.44849969 -0.3033068 0 0 Z " fill="#2AA0C2" transform="translate(58,28)"/>
<path d="M0 0 C0.66 0 1.32 0 2 0 C2.33 0.99 2.66 1.98 3 3 C5.49759982 4.69882448 5.49759982 4.69882448 8 6 C7.01 6.495 7.01 6.495 6 7 C4.0546875 6.22265625 4.0546875 6.22265625 1.875 5.0625 C1.15054688 4.68222656 0.42609375 4.30195313 -0.3203125 3.91015625 C-0.87460937 3.60980469 -1.42890625 3.30945313 -2 3 C-1.34 2.01 -0.68 1.02 0 0 Z " fill="#3C7F96" transform="translate(49,126)"/>
<path d="M0 0 C1.8125 0.1875 1.8125 0.1875 4 1 C5.75 3.5625 5.75 3.5625 7 6 C5.88625 5.505 5.88625 5.505 4.75 5 C1.86116688 3.77217129 1.86116688 3.77217129 -2 4 C-1.34 2.68 -0.68 1.36 0 0 Z " fill="#39839E" transform="translate(56,92)"/>
<path d="M0 0 C0.66 0 1.32 0 2 0 C0.50871999 3.79598549 -1.65733441 5.71720399 -5 8 C-5.99 8 -6.98 8 -8 8 C-8 7.34 -8 6.68 -8 6 C-6.34928604 4.97388051 -4.68029994 3.97691857 -3 3 C-2.1646875 2.1646875 -2.1646875 2.1646875 -1.3125 1.3125 C-0.879375 0.879375 -0.44625 0.44625 0 0 Z " fill="#1D6882" transform="translate(96,65)"/>
<path d="M0 0 C2.475 0.495 2.475 0.495 5 1 C5 1.66 5 2.32 5 3 C5.99 3.33 6.98 3.66 8 4 C6.35 4.33 4.7 4.66 3 5 C2.01 3.35 1.02 1.7 0 0 Z " fill="#3597BD" transform="translate(84,66)"/>
<path d="M0 0 C2.31 0 4.62 0 7 0 C7 0.99 7 1.98 7 3 C4.69 2.67 2.38 2.34 0 2 C0 1.34 0 0.68 0 0 Z " fill="#0AC4EF" transform="translate(58,28)"/>
<path d="M0 0 C0.33 0.66 0.66 1.32 1 2 C-0.25 4.5625 -0.25 4.5625 -2 7 C-2.99 7.33 -3.98 7.66 -5 8 C-3.8141763 4.62496331 -2.72426311 2.35277269 0 0 Z " fill="#3097B9" transform="translate(50,55)"/>
<path d="M0 0 C3 3.75 3 3.75 3 6 C0.525 5.01 0.525 5.01 -2 4 C-2 3.01 -2 2.02 -2 1 C-1.34 0.67 -0.68 0.34 0 0 Z " fill="#1AB6DC" transform="translate(53,125)"/>
<path d="M0 0 C2.31 0.33 4.62 0.66 7 1 C3.5647952 3.29013653 2.014669 3.17842973 -2 3 C-1.34 2.67 -0.68 2.34 0 2 C0 1.34 0 0.68 0 0 Z " fill="#27B2E6" transform="translate(79,131)"/>
<path d="M0 0 C0.33 1.32 0.66 2.64 1 4 C-0.98 4.99 -0.98 4.99 -3 6 C-3 4.35 -3 2.7 -3 1 C-2.01 0.67 -1.02 0.34 0 0 Z " fill="#27B8E3" transform="translate(55,111)"/>
<path d="M0 0 C0.99 0 1.98 0 3 0 C3 0.66 3 1.32 3 2 C3.99 2.66 4.98 3.32 6 4 C4.02 4.99 4.02 4.99 2 6 C1.34 4.02 0.68 2.04 0 0 Z " fill="#21BFEE" transform="translate(89,63)"/>
<path d="M0 0 C0.66 0.33 1.32 0.66 2 1 C1.6875 2.9375 1.6875 2.9375 1 5 C0.01 5.33 -0.98 5.66 -2 6 C-1.125 1.125 -1.125 1.125 0 0 Z " fill="#08C1EF" transform="translate(41,50)"/>
<path d="M0 0 C3.4375 1.3125 3.4375 1.3125 7 3 C7.33 3.99 7.66 4.98 8 6 C5.0280615 4.87548273 2.66559313 3.77706209 0 2 C0 1.34 0 0.68 0 0 Z " fill="#3FAFD9" transform="translate(106,36)"/>
</svg>
